<mxfile modified="2023-12-15T10:58:26.476Z" host="Electron" agent="Mozilla/5.0 (X11; Linux x86_64) AppleWebKit/537.36 (KHTML, like Gecko) draw.io/22.1.2 Chrome/114.0.5735.289 Electron/25.9.4 Safari/537.36" etag="61RQOx5uXbDfM3dRydi7" version="22.1.2" type="device">
  <diagram id="Ht1M8jgEwFfnCIfOTk4-" name="Page-1">
    <mxGraphModel dx="2074" dy="1243" grid="1" gridSize="10" guides="1" tooltips="1" connect="1" arrows="1" fold="1" page="1" pageScale="1" pageWidth="827" pageHeight="1169" math="0" shadow="0">
      <root>
        <mxCell id="0" />
        <mxCell id="1" parent="0" />
        <mxCell id="UEzPUAAOIrF-is8g5C7q-2" value="AWS Cloud" style="points=[[0,0],[0.25,0],[0.5,0],[0.75,0],[1,0],[1,0.25],[1,0.5],[1,0.75],[1,1],[0.75,1],[0.5,1],[0.25,1],[0,1],[0,0.75],[0,0.5],[0,0.25]];outlineConnect=0;gradientColor=none;html=1;whiteSpace=wrap;fontSize=12;fontStyle=0;shape=mxgraph.aws4.group;grIcon=mxgraph.aws4.group_aws_cloud_alt;strokeColor=#232F3E;fillColor=none;verticalAlign=top;align=left;spacingLeft=30;fontColor=#232F3E;dashed=0;container=1;pointerEvents=0;collapsible=0;recursiveResize=0;" parent="1" vertex="1">
          <mxGeometry x="460" y="175" width="350" height="486" as="geometry" />
        </mxCell>
        <mxCell id="UEzPUAAOIrF-is8g5C7q-19" value="3" style="rounded=1;whiteSpace=wrap;html=1;fillColor=#007CBD;strokeColor=none;fontColor=#FFFFFF;fontStyle=1;fontSize=22;" parent="UEzPUAAOIrF-is8g5C7q-2" vertex="1">
          <mxGeometry x="90" y="265" width="40" height="38" as="geometry" />
        </mxCell>
        <mxCell id="Rn5ZRjsLJGdN7JnNb3c5-17" value="API Gateway" style="outlineConnect=0;dashed=0;verticalLabelPosition=bottom;verticalAlign=top;align=center;html=1;shape=mxgraph.aws3.api_gateway;fillColor=#D9A741;gradientColor=none;" parent="UEzPUAAOIrF-is8g5C7q-2" vertex="1">
          <mxGeometry x="110" y="134" width="60" height="75" as="geometry" />
        </mxCell>
        <mxCell id="Rn5ZRjsLJGdN7JnNb3c5-20" value="DynamoDB" style="outlineConnect=0;dashed=0;verticalLabelPosition=bottom;verticalAlign=top;align=center;html=1;shape=mxgraph.aws3.dynamo_db;fillColor=#2E73B8;gradientColor=none;" parent="UEzPUAAOIrF-is8g5C7q-2" vertex="1">
          <mxGeometry x="260" y="330.5" width="72" height="81" as="geometry" />
        </mxCell>
        <mxCell id="UEzPUAAOIrF-is8g5C7q-20" value="4" style="rounded=1;whiteSpace=wrap;html=1;fillColor=#007CBD;strokeColor=none;fontColor=#FFFFFF;fontStyle=1;fontSize=22;" parent="UEzPUAAOIrF-is8g5C7q-2" vertex="1">
          <mxGeometry x="200" y="325" width="40" height="38" as="geometry" />
        </mxCell>
        <mxCell id="UEzPUAAOIrF-is8g5C7q-21" value="5" style="rounded=1;whiteSpace=wrap;html=1;fillColor=#007CBD;strokeColor=none;fontColor=#FFFFFF;fontStyle=1;fontSize=22;" parent="UEzPUAAOIrF-is8g5C7q-2" vertex="1">
          <mxGeometry x="210" y="125" width="40" height="38" as="geometry" />
        </mxCell>
        <mxCell id="Rn5ZRjsLJGdN7JnNb3c5-25" style="edgeStyle=orthogonalEdgeStyle;rounded=0;orthogonalLoop=1;jettySize=auto;html=1;startArrow=classic;startFill=1;" parent="UEzPUAAOIrF-is8g5C7q-2" source="Rn5ZRjsLJGdN7JnNb3c5-23" target="Rn5ZRjsLJGdN7JnNb3c5-20" edge="1">
          <mxGeometry relative="1" as="geometry" />
        </mxCell>
        <mxCell id="Rn5ZRjsLJGdN7JnNb3c5-23" value="Lambda" style="outlineConnect=0;dashed=0;verticalLabelPosition=bottom;verticalAlign=top;align=center;html=1;shape=mxgraph.aws3.lambda_function;fillColor=#F58534;gradientColor=none;" parent="UEzPUAAOIrF-is8g5C7q-2" vertex="1">
          <mxGeometry x="105.5" y="335" width="69" height="72" as="geometry" />
        </mxCell>
        <mxCell id="Rn5ZRjsLJGdN7JnNb3c5-24" style="edgeStyle=orthogonalEdgeStyle;rounded=0;orthogonalLoop=1;jettySize=auto;html=1;entryX=0.5;entryY=0;entryDx=0;entryDy=0;entryPerimeter=0;startArrow=classic;startFill=1;" parent="UEzPUAAOIrF-is8g5C7q-2" source="Rn5ZRjsLJGdN7JnNb3c5-17" target="Rn5ZRjsLJGdN7JnNb3c5-23" edge="1">
          <mxGeometry relative="1" as="geometry" />
        </mxCell>
        <mxCell id="UEzPUAAOIrF-is8g5C7q-1" value="Home" style="points=[[0,0],[0.25,0],[0.5,0],[0.75,0],[1,0],[1,0.25],[1,0.5],[1,0.75],[1,1],[0.75,1],[0.5,1],[0.25,1],[0,1],[0,0.75],[0,0.5],[0,0.25]];outlineConnect=0;gradientColor=none;html=1;whiteSpace=wrap;fontSize=12;fontStyle=0;shape=mxgraph.aws4.group;grIcon=mxgraph.aws4.group_corporate_data_center;strokeColor=#5A6C86;fillColor=none;verticalAlign=top;align=left;spacingLeft=30;fontColor=#5A6C86;dashed=0;container=1;pointerEvents=0;collapsible=0;recursiveResize=0;" parent="1" vertex="1">
          <mxGeometry x="11.5" y="175" width="388.5" height="485" as="geometry" />
        </mxCell>
        <mxCell id="Rn5ZRjsLJGdN7JnNb3c5-3" value="" style="shape=image;imageAspect=0;aspect=fixed;verticalLabelPosition=bottom;verticalAlign=top;image=https://domoticx.com/wp-content/uploads/2016/12/ESP32-chip-icon.png;" parent="UEzPUAAOIrF-is8g5C7q-1" vertex="1">
          <mxGeometry x="138.5" y="139" width="65.64" height="65" as="geometry" />
        </mxCell>
        <mxCell id="Rn5ZRjsLJGdN7JnNb3c5-7" style="edgeStyle=orthogonalEdgeStyle;rounded=0;orthogonalLoop=1;jettySize=auto;html=1;" parent="UEzPUAAOIrF-is8g5C7q-1" source="Rn5ZRjsLJGdN7JnNb3c5-5" target="Rn5ZRjsLJGdN7JnNb3c5-3" edge="1">
          <mxGeometry relative="1" as="geometry" />
        </mxCell>
        <mxCell id="Rn5ZRjsLJGdN7JnNb3c5-5" value="" style="shape=image;imageAspect=0;aspect=fixed;verticalLabelPosition=bottom;verticalAlign=top;image=https://img.freepik.com/premium-vector/temparature-humidity-sensor_600943-19.jpg?w=996;" parent="UEzPUAAOIrF-is8g5C7q-1" vertex="1">
          <mxGeometry x="38.43" y="100" width="34.04" height="60" as="geometry" />
        </mxCell>
        <mxCell id="-QjtrjUzRDEMRZ5MF8oH-9" value="1" style="rounded=1;whiteSpace=wrap;html=1;fillColor=#007CBD;strokeColor=none;fontColor=#FFFFFF;fontStyle=1;fontSize=22;" parent="UEzPUAAOIrF-is8g5C7q-1" vertex="1">
          <mxGeometry x="108.5" y="85" width="40" height="38" as="geometry" />
        </mxCell>
        <mxCell id="Rn5ZRjsLJGdN7JnNb3c5-8" style="edgeStyle=orthogonalEdgeStyle;rounded=0;orthogonalLoop=1;jettySize=auto;html=1;entryX=0;entryY=0.5;entryDx=0;entryDy=0;" parent="UEzPUAAOIrF-is8g5C7q-1" source="Rn5ZRjsLJGdN7JnNb3c5-6" target="Rn5ZRjsLJGdN7JnNb3c5-3" edge="1">
          <mxGeometry relative="1" as="geometry" />
        </mxCell>
        <mxCell id="Rn5ZRjsLJGdN7JnNb3c5-6" value="" style="shape=image;imageAspect=0;aspect=fixed;verticalLabelPosition=bottom;verticalAlign=top;image=https://encrypted-tbn0.gstatic.com/images?q=tbn:ANd9GcSmIVqgDF7TUd1_GvoIvHcZfTMsP9s8S5BHoQ&amp;usqp=CAU;" parent="UEzPUAAOIrF-is8g5C7q-1" vertex="1">
          <mxGeometry x="20" y="211.53" width="52.47" height="52.47" as="geometry" />
        </mxCell>
        <mxCell id="UEzPUAAOIrF-is8g5C7q-32" style="edgeStyle=orthogonalEdgeStyle;rounded=0;orthogonalLoop=1;jettySize=auto;html=1;strokeColor=#545B64;strokeWidth=2;endFill=0;endArrow=open;startArrow=none;" parent="1" edge="1">
          <mxGeometry relative="1" as="geometry">
            <mxPoint x="895.5" y="360" as="targetPoint" />
          </mxGeometry>
        </mxCell>
        <mxCell id="UEzPUAAOIrF-is8g5C7q-33" style="edgeStyle=orthogonalEdgeStyle;rounded=0;orthogonalLoop=1;jettySize=auto;html=1;strokeColor=#545B64;strokeWidth=2;endFill=0;endArrow=open;startArrow=none;" parent="1" edge="1">
          <mxGeometry relative="1" as="geometry">
            <mxPoint x="721" y="399" as="targetPoint" />
          </mxGeometry>
        </mxCell>
        <mxCell id="UEzPUAAOIrF-is8g5C7q-34" style="edgeStyle=orthogonalEdgeStyle;rounded=0;orthogonalLoop=1;jettySize=auto;html=1;strokeColor=#545B64;strokeWidth=2;endFill=0;endArrow=open;startArrow=none;" parent="1" edge="1">
          <mxGeometry relative="1" as="geometry">
            <mxPoint x="721" y="542" as="targetPoint" />
          </mxGeometry>
        </mxCell>
        <mxCell id="-QjtrjUzRDEMRZ5MF8oH-47" value="IoT Home Air Quality Monitor" style="text;html=1;resizable=0;points=[];autosize=1;align=left;verticalAlign=top;spacingTop=-4;fontSize=30;fontStyle=1" parent="1" vertex="1">
          <mxGeometry x="11.5" y="90" width="440" height="40" as="geometry" />
        </mxCell>
        <mxCell id="SCVMTBWpLvtzJIhz15lM-1" value="" style="line;strokeWidth=2;html=1;fontSize=14;" parent="1" vertex="1">
          <mxGeometry x="8" y="140.5" width="1060" height="10" as="geometry" />
        </mxCell>
        <mxCell id="7OVz4w7n9kzEPWy-4BBC-3" value="" style="rounded=0;whiteSpace=wrap;html=1;fillColor=#EAEDED;fontSize=22;fontColor=#FFFFFF;strokeColor=none;labelBackgroundColor=none;" parent="1" vertex="1">
          <mxGeometry x="11.5" y="690" width="1508.5" height="340" as="geometry" />
        </mxCell>
        <mxCell id="7OVz4w7n9kzEPWy-4BBC-4" value="1" style="rounded=1;whiteSpace=wrap;html=1;fillColor=#007CBD;strokeColor=none;fontColor=#FFFFFF;fontStyle=1;fontSize=22;labelBackgroundColor=none;" parent="1" vertex="1">
          <mxGeometry x="31.5" y="706.5" width="40" height="38" as="geometry" />
        </mxCell>
        <mxCell id="7OVz4w7n9kzEPWy-4BBC-5" value="2" style="rounded=1;whiteSpace=wrap;html=1;fillColor=#007CBD;strokeColor=none;fontColor=#FFFFFF;fontStyle=1;fontSize=22;labelBackgroundColor=none;" parent="1" vertex="1">
          <mxGeometry x="30" y="828" width="40" height="38" as="geometry" />
        </mxCell>
        <mxCell id="7OVz4w7n9kzEPWy-4BBC-6" value="3" style="rounded=1;whiteSpace=wrap;html=1;fillColor=#007CBD;strokeColor=none;fontColor=#FFFFFF;fontStyle=1;fontSize=22;labelBackgroundColor=none;" parent="1" vertex="1">
          <mxGeometry x="31.5" y="946.25" width="40" height="38" as="geometry" />
        </mxCell>
        <mxCell id="7OVz4w7n9kzEPWy-4BBC-7" value="4" style="rounded=1;whiteSpace=wrap;html=1;fillColor=#007CBD;strokeColor=none;fontColor=#FFFFFF;fontStyle=1;fontSize=22;labelBackgroundColor=none;" parent="1" vertex="1">
          <mxGeometry x="562.5" y="710.25" width="40" height="38" as="geometry" />
        </mxCell>
        <mxCell id="7OVz4w7n9kzEPWy-4BBC-8" value="5" style="rounded=1;whiteSpace=wrap;html=1;fillColor=#007CBD;strokeColor=none;fontColor=#FFFFFF;fontStyle=1;fontSize=22;labelBackgroundColor=none;" parent="1" vertex="1">
          <mxGeometry x="564" y="827.25" width="40" height="38" as="geometry" />
        </mxCell>
        <mxCell id="7OVz4w7n9kzEPWy-4BBC-9" value="6" style="rounded=1;whiteSpace=wrap;html=1;fillColor=#007CBD;strokeColor=none;fontColor=#FFFFFF;fontStyle=1;fontSize=22;labelBackgroundColor=none;" parent="1" vertex="1">
          <mxGeometry x="565" y="942.25" width="40" height="38" as="geometry" />
        </mxCell>
        <mxCell id="7OVz4w7n9kzEPWy-4BBC-13" value="&lt;span style=&quot;font-size: 18px;&quot;&gt;ESP32 module gets sensor data and sends to AWS API Gateway.&lt;/span&gt;" style="text;html=1;align=left;verticalAlign=top;spacingTop=-4;fontSize=18;labelBackgroundColor=none;whiteSpace=wrap;" parent="1" vertex="1">
          <mxGeometry x="83" y="706" width="449" height="118" as="geometry" />
        </mxCell>
        <mxCell id="7OVz4w7n9kzEPWy-4BBC-14" value="When the PUT request is received by the API, it will trigger a Lambda function." style="text;html=1;align=left;verticalAlign=top;spacingTop=-4;fontSize=18;labelBackgroundColor=none;whiteSpace=wrap;" parent="1" vertex="1">
          <mxGeometry x="82" y="828.5" width="450" height="115" as="geometry" />
        </mxCell>
        <mxCell id="7OVz4w7n9kzEPWy-4BBC-15" value="The Lambda function&amp;nbsp;handles the CRUD operations by&amp;nbsp;&lt;span style=&quot;font-size: 18px;&quot;&gt;checking the headers to execute the correct function.&lt;/span&gt;" style="text;html=1;align=left;verticalAlign=top;spacingTop=-4;fontSize=18;labelBackgroundColor=none;whiteSpace=wrap;" parent="1" vertex="1">
          <mxGeometry x="83.5" y="944.75" width="450" height="117" as="geometry" />
        </mxCell>
        <mxCell id="7OVz4w7n9kzEPWy-4BBC-16" value="&lt;span style=&quot;font-size: 18px;&quot;&gt;A new entry to the DynamoDB table is created with the data from the PUT request.&lt;/span&gt;" style="text;html=1;align=left;verticalAlign=top;spacingTop=-4;fontSize=18;labelBackgroundColor=none;whiteSpace=wrap;" parent="1" vertex="1">
          <mxGeometry x="614.5" y="710.75" width="450" height="121" as="geometry" />
        </mxCell>
        <mxCell id="7OVz4w7n9kzEPWy-4BBC-17" value="To view the data, a GET request can be sent to the API which will invoke the Lambda function from step 3. The front-end in step 6 calls this API to get and display data." style="text;html=1;align=left;verticalAlign=top;spacingTop=-4;fontSize=18;labelBackgroundColor=none;whiteSpace=wrap;" parent="1" vertex="1">
          <mxGeometry x="615.5" y="827.75" width="449" height="114" as="geometry" />
        </mxCell>
        <mxCell id="7OVz4w7n9kzEPWy-4BBC-18" value="Front-end uses HTML, CSS, Javascript. Files are stored on my home server in a Debian VM." style="text;html=1;align=left;verticalAlign=top;spacingTop=-4;fontSize=18;labelBackgroundColor=none;whiteSpace=wrap;" parent="1" vertex="1">
          <mxGeometry x="615.5" y="943.75" width="450" height="66.25" as="geometry" />
        </mxCell>
        <mxCell id="UEzPUAAOIrF-is8g5C7q-10" value="2" style="rounded=1;whiteSpace=wrap;html=1;fillColor=#007CBD;strokeColor=none;fontColor=#FFFFFF;fontStyle=1;fontSize=22;" parent="1" vertex="1">
          <mxGeometry x="411.5" y="300" width="40" height="38" as="geometry" />
        </mxCell>
        <mxCell id="Rn5ZRjsLJGdN7JnNb3c5-19" style="edgeStyle=orthogonalEdgeStyle;rounded=0;orthogonalLoop=1;jettySize=auto;html=1;" parent="1" source="Rn5ZRjsLJGdN7JnNb3c5-3" target="Rn5ZRjsLJGdN7JnNb3c5-17" edge="1">
          <mxGeometry relative="1" as="geometry" />
        </mxCell>
        <mxCell id="Rn5ZRjsLJGdN7JnNb3c5-26" value="devices" style="sketch=0;outlineConnect=0;gradientColor=none;fontColor=#545B64;strokeColor=none;fillColor=#879196;dashed=0;verticalLabelPosition=bottom;verticalAlign=top;align=center;html=1;fontSize=12;fontStyle=0;aspect=fixed;shape=mxgraph.aws4.illustration_devices;pointerEvents=1" parent="1" vertex="1">
          <mxGeometry x="1350" y="310.01" width="100" height="73" as="geometry" />
        </mxCell>
        <mxCell id="LVJ6si972l2Sbibib7fI-14" style="edgeStyle=orthogonalEdgeStyle;rounded=0;orthogonalLoop=1;jettySize=auto;html=1;startArrow=classic;startFill=1;" parent="1" source="Rn5ZRjsLJGdN7JnNb3c5-28" target="LVJ6si972l2Sbibib7fI-13" edge="1">
          <mxGeometry relative="1" as="geometry" />
        </mxCell>
        <mxCell id="Rn5ZRjsLJGdN7JnNb3c5-28" value="Front-End" style="sketch=0;pointerEvents=1;shadow=0;dashed=0;html=1;strokeColor=none;fillColor=#505050;labelPosition=center;verticalLabelPosition=bottom;verticalAlign=top;outlineConnect=0;align=center;shape=mxgraph.office.sites.website_public;" parent="1" vertex="1">
          <mxGeometry x="870" y="313.63" width="70" height="65.75" as="geometry" />
        </mxCell>
        <mxCell id="UZnFOWKkK_b1K7-Heg4M-10" style="edgeStyle=orthogonalEdgeStyle;rounded=0;orthogonalLoop=1;jettySize=auto;html=1;startArrow=classic;startFill=1;" parent="1" source="Rn5ZRjsLJGdN7JnNb3c5-17" target="Rn5ZRjsLJGdN7JnNb3c5-28" edge="1">
          <mxGeometry relative="1" as="geometry" />
        </mxCell>
        <mxCell id="LVJ6si972l2Sbibib7fI-8" value="Home Server VM" style="points=[[0,0],[0.25,0],[0.5,0],[0.75,0],[1,0],[1,0.25],[1,0.5],[1,0.75],[1,1],[0.75,1],[0.5,1],[0.25,1],[0,1],[0,0.75],[0,0.5],[0,0.25]];outlineConnect=0;gradientColor=none;html=1;whiteSpace=wrap;fontSize=12;fontStyle=0;container=1;pointerEvents=0;collapsible=0;recursiveResize=0;shape=mxgraph.aws4.group;grIcon=mxgraph.aws4.group_on_premise;strokeColor=#292198;fillColor=none;verticalAlign=top;align=left;spacingLeft=30;fontColor=#5A6C86;dashed=0;" parent="1" vertex="1">
          <mxGeometry x="827" y="175" width="283" height="485" as="geometry" />
        </mxCell>
        <mxCell id="Rn5ZRjsLJGdN7JnNb3c5-29" value="6" style="rounded=1;whiteSpace=wrap;html=1;fillColor=#007CBD;strokeColor=none;fontColor=#FFFFFF;fontStyle=1;fontSize=22;labelBackgroundColor=none;" parent="LVJ6si972l2Sbibib7fI-8" vertex="1">
          <mxGeometry x="133" y="125" width="40" height="38" as="geometry" />
        </mxCell>
        <mxCell id="LVJ6si972l2Sbibib7fI-13" value="Nginx" style="shape=image;imageAspect=0;aspect=fixed;verticalLabelPosition=bottom;verticalAlign=top;image=https://external-content.duckduckgo.com/iu/?u=https%3A%2F%2Flogodownload.org%2Fwp-content%2Fuploads%2F2018%2F03%2Fnginx-logo-1.png&amp;f=1&amp;nofb=1&amp;ipt=b5c4931b243eabe0342c0ef6da577054d1a2e429cc3cde45daf2badb853b2028&amp;ipo=images;" parent="LVJ6si972l2Sbibib7fI-8" vertex="1">
          <mxGeometry x="193" y="137.51" width="59.24" height="68" as="geometry" />
        </mxCell>
        <mxCell id="LVJ6si972l2Sbibib7fI-9" value="7" style="rounded=1;whiteSpace=wrap;html=1;fillColor=#007CBD;strokeColor=none;fontColor=#FFFFFF;fontStyle=1;fontSize=22;labelBackgroundColor=none;" parent="1" vertex="1">
          <mxGeometry x="1110" y="706.5" width="40" height="38" as="geometry" />
        </mxCell>
        <mxCell id="LVJ6si972l2Sbibib7fI-10" value="8" style="rounded=1;whiteSpace=wrap;html=1;fillColor=#007CBD;strokeColor=none;fontColor=#FFFFFF;fontStyle=1;fontSize=22;labelBackgroundColor=none;" parent="1" vertex="1">
          <mxGeometry x="1110" y="866.75" width="40" height="38" as="geometry" />
        </mxCell>
        <mxCell id="LVJ6si972l2Sbibib7fI-11" value="&lt;span style=&quot;font-size: 18px;&quot;&gt;The home&#39;s Nginx forwards the client&#39;s request to my server VM and serves the static front-end files back.&lt;/span&gt;" style="text;html=1;align=left;verticalAlign=top;spacingTop=-4;fontSize=18;labelBackgroundColor=none;whiteSpace=wrap;" parent="1" vertex="1">
          <mxGeometry x="1160" y="706.75" width="340" height="121" as="geometry" />
        </mxCell>
        <mxCell id="LVJ6si972l2Sbibib7fI-19" value="VPS" style="points=[[0,0],[0.25,0],[0.5,0],[0.75,0],[1,0],[1,0.25],[1,0.5],[1,0.75],[1,1],[0.75,1],[0.5,1],[0.25,1],[0,1],[0,0.75],[0,0.5],[0,0.25]];outlineConnect=0;gradientColor=none;html=1;whiteSpace=wrap;fontSize=12;fontStyle=0;container=1;pointerEvents=0;collapsible=0;recursiveResize=0;shape=mxgraph.aws4.group;grIcon=mxgraph.aws4.group_on_premise;strokeColor=#981A1A;fillColor=none;verticalAlign=top;align=left;spacingLeft=30;fontColor=#5A6C86;dashed=0;" parent="1" vertex="1">
          <mxGeometry x="1131" y="175" width="189" height="485" as="geometry" />
        </mxCell>
        <mxCell id="LVJ6si972l2Sbibib7fI-15" value="7" style="rounded=1;whiteSpace=wrap;html=1;fillColor=#007CBD;strokeColor=none;fontColor=#FFFFFF;fontStyle=1;fontSize=22;labelBackgroundColor=none;" parent="LVJ6si972l2Sbibib7fI-19" vertex="1">
          <mxGeometry x="9" y="125" width="40" height="38" as="geometry" />
        </mxCell>
        <mxCell id="LVJ6si972l2Sbibib7fI-21" value="Nginx" style="shape=image;imageAspect=0;aspect=fixed;verticalLabelPosition=bottom;verticalAlign=top;image=https://external-content.duckduckgo.com/iu/?u=https%3A%2F%2Flogodownload.org%2Fwp-content%2Fuploads%2F2018%2F03%2Fnginx-logo-1.png&amp;f=1&amp;nofb=1&amp;ipt=b5c4931b243eabe0342c0ef6da577054d1a2e429cc3cde45daf2badb853b2028&amp;ipo=images;" parent="LVJ6si972l2Sbibib7fI-19" vertex="1">
          <mxGeometry x="64.88000000000001" y="137.51" width="59.24" height="68" as="geometry" />
        </mxCell>
        <mxCell id="LVJ6si972l2Sbibib7fI-24" value="8" style="rounded=1;whiteSpace=wrap;html=1;fillColor=#007CBD;strokeColor=none;fontColor=#FFFFFF;fontStyle=1;fontSize=22;labelBackgroundColor=none;arcSize=0;" parent="LVJ6si972l2Sbibib7fI-19" vertex="1">
          <mxGeometry x="139" y="125" width="40" height="38" as="geometry" />
        </mxCell>
        <mxCell id="LVJ6si972l2Sbibib7fI-20" value="When a client enters the website domain, it gets routed to a VPS and forwards the request to my home via Nginx and waits to receive the front-end files." style="text;html=1;align=left;verticalAlign=top;spacingTop=-4;fontSize=18;labelBackgroundColor=none;whiteSpace=wrap;" parent="1" vertex="1">
          <mxGeometry x="1160" y="866.75" width="340" height="121" as="geometry" />
        </mxCell>
        <mxCell id="LVJ6si972l2Sbibib7fI-22" style="edgeStyle=orthogonalEdgeStyle;rounded=0;orthogonalLoop=1;jettySize=auto;html=1;startArrow=classic;startFill=1;" parent="1" source="LVJ6si972l2Sbibib7fI-21" target="Rn5ZRjsLJGdN7JnNb3c5-26" edge="1">
          <mxGeometry relative="1" as="geometry" />
        </mxCell>
        <mxCell id="LVJ6si972l2Sbibib7fI-23" style="edgeStyle=orthogonalEdgeStyle;rounded=0;orthogonalLoop=1;jettySize=auto;html=1;startArrow=classic;startFill=1;" parent="1" source="LVJ6si972l2Sbibib7fI-13" target="LVJ6si972l2Sbibib7fI-21" edge="1">
          <mxGeometry relative="1" as="geometry" />
        </mxCell>
      </root>
    </mxGraphModel>
  </diagram>
</mxfile>
